---
layout: anime

title: Bokura wa Minna Kawaisou
image: https://i.imgur.com/hiyp4Bb.jpg
mal: 21405
anidb: 10288
r720: false
r1080: true

desc: >-
  This show was recommended to me by a friend saying it's relaxing and quite humorous. Which it is, though it does contain a few annoying tropes. Looking past that, it's actually pretty good.
  <br><br>
  I took beatrice's raws and muxed them with sallysubs. I didn't do much to the subs, just sync'd and added the english title to the op since only ep9 and ep12 (I think) had it for some reason.

status: Complete
groups: Beatrice-Raws, SallySubs
vidinfo: .mkv, h264 10-bit

size1080: ~3 GB / Episode @ 1080p (1920x1080)
audio1080a: Japanese 2.0ch FLAC (Main Dialogue)
subtitle1: English Dialogue (.ass) [SallySubs]

nyaa1080: https://nyaa.si/view/1082442
anidex1080: https://anidex.info/torrent/190484
at1080: https://animetosho.org/view/cyc-bokura-wa-minna-kawaisou-special-bd-1080p.n1082442
ant1080: https://animetorrents.me/torrent-details.php?torid=38970
ab1080: https://animebytes.tv/torrents.php?id=18293&torrentid=387244
abs1080: https://animebytes.tv/torrents.php?id=22955&torrentid=387246
abstype1080: Special

github: https://github.com/cyc-anime/bokura-wa-minna-kawaisou
---
General
Unique ID                                : 252031159976662598640100460257320814264 (0xBD9B6F900CA9E165AC72CA917966C6B8)
Complete name                            : [CyC] Bokura wa Minna Kawaisou 01 (BD 1080p Hi10 x264 FLAC) [0A9F1F65].mkv
Format                                   : Matroska
Format version                           : Version 4
File size                                : 3.26 GiB
Duration                                 : 24 min 12 s
Overall bit rate mode                    : Variable
Overall bit rate                         : 19.3 Mb/s
Movie name                               : Just Imagine
Encoded date                             : UTC 2018-10-06 20:57:46
Writing application                      : mkvmerge v9.7.1 ('Pandemonium') 64bit
Writing library                          : libebml v1.3.4 + libmatroska v1.4.5
Attachments                              : Arista2.0.ttf / COMIRG.TTF / DFKai5.ttc / DISTInking-Bold.otf / DJB Geeks Who Wear Glasses.ttf / EuroComic.ttf / FRML436N.TTF / gomarice_mukasi_mukasi.TTF / IwaOMinPro-Bd-Fate_1.ttf / JENKINSV2.TTF / NothingYouCouldSay.ttf / PAINP_.TTF / Painted.ttf / Passing Notes.ttf / Pen_of_Truth___FREE_FONT_by_Sonira.ttf / PermanentMarker.ttf / Pinguino.ttf / prehistoric.ttf / RaysHand-Regular.ttf / Rosario-Bold.ttf / Rosario-BoldItalic.ttf / shark party.ttf / YummyCupcakes.ttf / 75749.TTF / Arial Rounded MT.ttf / CENSCBK.TTF / COMIB.TTF

Video
ID                                       : 1
Format                                   : AVC
Format/Info                              : Advanced Video Codec
Format profile                           : High 10@L5
Format settings                          : CABAC / 4 Ref Frames
Format settings, CABAC                   : Yes
Format settings, RefFrames               : 4 frames
Codec ID                                 : V_MPEG4/ISO/AVC
Duration                                 : 24 min 12 s
Bit rate                                 : 17.0 Mb/s
Width                                    : 1 920 pixels
Height                                   : 1 080 pixels
Display aspect ratio                     : 16:9
Frame rate mode                          : Constant
Frame rate                               : 23.976 (24000/1001) FPS
Color space                              : YUV
Chroma subsampling                       : 4:2:0
Bit depth                                : 10 bits
Scan type                                : Progressive
Bits/(Pixel*Frame)                       : 0.342
Stream size                              : 2.87 GiB (88%)
Writing library                          : x264 core 152 r2851M ba24899 (DJATOM's build)
Encoding settings                        : cabac=1 / ref=4 / deblock=1:1:-1 / analyse=0x3:0x113 / me=umh / subme=9 / psy=1 / psy_rd=1.00:0.00 / mixed_ref=1 / me_range=32 / chroma_me=1 / trellis=2 / 8x8dct=1 / cqm=0 / deadzone=21,11 / fast_pskip=1 / chroma_qp_offset=-2 / threads=34 / lookahead_threads=5 / sliced_threads=0 / nr=0 / decimate=1 / interlaced=0 / bluray_compat=0 / constrained_intra=0 / bframes=9 / b_pyramid=2 / b_adapt=2 / b_bias=0 / direct=1 / weightb=1 / open_gop=0 / weightp=2 / keyint=250 / keyint_min=23 / scenecut=40 / intra_refresh=0 / rc=crf / mbtree=0 / crf=15.0000 / qcomp=0.72 / qpmin=0 / qpmax=81 / qpstep=4 / ip_ratio=1.40 / pb_ratio=1.30 / aq=1:0.85
Language                                 : Japanese
Default                                  : Yes
Forced                                   : No
Color range                              : Limited
Color primaries                          : BT.709
Transfer characteristics                 : BT.709
Matrix coefficients                      : BT.709

Audio
ID                                       : 2
Format                                   : FLAC
Format/Info                              : Free Lossless Audio Codec
Codec ID                                 : A_FLAC
Duration                                 : 24 min 12 s
Bit rate mode                            : Variable
Bit rate                                 : 2 214 kb/s
Channel(s)                               : 2 channels
Channel layout                           : L R
Sampling rate                            : 96.0 kHz
Frame rate                               : 23.438 FPS (4096 SPF)
Bit depth                                : 24 bits
Compression mode                         : Lossless
Stream size                              : 383 MiB (11%)
Writing library                          : libFLAC 1.3.2 (UTC 2017-01-01)
Language                                 : Japanese
Default                                  : Yes
Forced                                   : No

Text
ID                                       : 3
Format                                   : ASS
Codec ID                                 : S_TEXT/ASS
Codec ID/Info                            : Advanced Sub Station Alpha
Duration                                 : 24 min 0 s
Bit rate                                 : 12.3 kb/s
Count of elements                        : 13841
Compression mode                         : Lossless
Stream size                              : 2.11 MiB (0%)
Title                                    : SallySubs
Language                                 : English
Default                                  : Yes
Forced                                   : No

Menu
00:00:00.000                             : :Avant
00:00:52.052                             : :OP
00:02:22.016                             : :Part A
00:13:34.021                             : :Part B
00:22:09.995                             : :ED
00:23:40.001                             : :Next